<svg width="419" height="198" viewBox="0 0 419 198" fill="none" xmlns="http://www.w3.org/2000/svg">
<path d="M107.043 169.686C112.763 172.804 119.693 172.433 124.367 168.757L185.885 122.08C189.232 119.618 188.821 111.649 185.239 109.558L119.372 71.995C113.653 68.8771 107.416 69.2109 102.049 72.9234L40.4134 117.323C37.0656 119.786 37.4766 127.755 41.059 129.846L107.043 169.686Z" fill="#7C7C7C"/>
<path d="M119.092 70.4637C113.37 67.3795 107.117 67.7356 101.723 71.4532L39.7769 115.905C36.8227 118.07 36.762 124.448 39.2163 127.373L111.059 149.887C117.361 151.56 124.04 149.575 127.76 144.924L166.475 98.4404L119.092 70.4637Z" fill="#474747"/>
<path d="M108.436 146.582C114.821 148.099 121.423 145.894 124.943 141.067L171.722 79.2032C174.289 75.912 171.717 68.2533 167.681 67.1689L93.7125 48.0786C87.3285 46.5619 81.3865 48.5469 77.2064 53.5938L29.6919 113.271C27.1248 116.561 29.6974 124.22 33.7326 125.305L108.436 146.582Z" fill="#5E5E5E"/>
<path d="M93.6491 48.0893C87.2763 46.5882 81.3396 48.5743 77.1576 53.6074L29.6186 113.119C27.0506 116.4 29.6075 124.023 33.637 125.098L35.4349 125.607L110.502 127.051C117.043 126.889 122.863 123.079 125.052 117.527L148.057 62.0174L93.6491 48.0893Z" fill="#353535"/>
<path d="M111.997 122.009C118.492 121.381 123.993 117.157 125.75 111.449L149.845 37.7295C151.2 33.783 146.314 27.3611 142.169 27.6395L66.433 33.4787C59.9382 34.1066 54.9868 37.9082 52.679 44.0402L27.1891 115.925C25.8344 119.871 30.7191 126.292 34.8655 126.015L111.997 122.009Z" fill="#FFCB1A" stroke="#FFCB1A" stroke-width="0.133333" stroke-miterlimit="10"/>
<path d="M249.25 56L244.984 45.1016H231.25L227.031 56H223L236.547 21.5938H239.898L253.375 56H249.25ZM243.742 41.5156L239.758 30.8984C239.242 29.5547 238.711 27.9062 238.164 25.9531C237.82 27.4531 237.328 29.1016 236.687 30.8984L232.656 41.5156H243.742ZM261.39 56H257.5V30.3125H261.39V56ZM257.171 23.3516C257.171 22.4609 257.39 21.8125 257.828 21.4062C258.265 20.9844 258.812 20.7734 259.468 20.7734C260.093 20.7734 260.632 20.9844 261.085 21.4062C261.539 21.8281 261.765 22.4766 261.765 23.3516C261.765 24.2266 261.539 24.8828 261.085 25.3203C260.632 25.7422 260.093 25.9531 259.468 25.9531C258.812 25.9531 258.265 25.7422 257.828 25.3203C257.39 24.8828 257.171 24.2266 257.171 23.3516ZM281.359 29.8438C282.499 29.8438 283.523 29.9375 284.429 30.125L283.89 33.7344C282.827 33.5 281.89 33.3828 281.077 33.3828C278.999 33.3828 277.218 34.2266 275.734 35.9141C274.265 37.6016 273.531 39.7031 273.531 42.2188V56H269.64V30.3125H272.851L273.296 35.0703H273.484C274.437 33.3984 275.585 32.1094 276.929 31.2031C278.273 30.2969 279.749 29.8438 281.359 29.8438ZM297.53 53.2578C298.218 53.2578 298.882 53.2109 299.523 53.1172C300.163 53.0078 300.671 52.8984 301.046 52.7891V55.7656C300.624 55.9688 299.999 56.1328 299.171 56.2578C298.358 56.3984 297.624 56.4688 296.968 56.4688C291.999 56.4688 289.515 53.8516 289.515 48.6172V33.3359H285.835V31.4609L289.515 29.8438L291.155 24.3594H293.405V30.3125H300.858V33.3359H293.405V48.4531C293.405 50 293.773 51.1875 294.507 52.0156C295.241 52.8438 296.249 53.2578 297.53 53.2578ZM321.999 56L321.225 52.3438H321.038C319.757 53.9531 318.475 55.0469 317.194 55.625C315.929 56.1875 314.343 56.4688 312.436 56.4688C309.89 56.4688 307.89 55.8125 306.436 54.5C304.999 53.1875 304.28 51.3203 304.28 48.8984C304.28 43.7109 308.429 40.9922 316.725 40.7422L321.085 40.6016V39.0078C321.085 36.9922 320.647 35.5078 319.772 34.5547C318.913 33.5859 317.53 33.1016 315.624 33.1016C313.483 33.1016 311.061 33.7578 308.358 35.0703L307.163 32.0938C308.429 31.4062 309.811 30.8672 311.311 30.4766C312.827 30.0859 314.343 29.8906 315.858 29.8906C318.921 29.8906 321.186 30.5703 322.655 31.9297C324.139 33.2891 324.882 35.4688 324.882 38.4688V56H321.999ZM313.21 53.2578C315.632 53.2578 317.53 52.5938 318.905 51.2656C320.296 49.9375 320.991 48.0781 320.991 45.6875V43.3672L317.1 43.5312C314.007 43.6406 311.772 44.125 310.397 44.9844C309.038 45.8281 308.358 47.1484 308.358 48.9453C308.358 50.3516 308.78 51.4219 309.624 52.1562C310.483 52.8906 311.679 53.2578 313.21 53.2578ZM344.874 29.8906C348.248 29.8906 350.866 31.0469 352.725 33.3594C354.6 35.6562 355.537 38.9141 355.537 43.1328C355.537 47.3516 354.592 50.6328 352.702 52.9766C350.827 55.3047 348.217 56.4688 344.874 56.4688C343.202 56.4688 341.67 56.1641 340.28 55.5547C338.905 54.9297 337.749 53.9766 336.811 52.6953H336.53L335.71 56H332.921V19.5312H336.811V28.3906C336.811 30.375 336.749 32.1562 336.624 33.7344H336.811C338.624 31.1719 341.311 29.8906 344.874 29.8906ZM344.311 33.1484C341.655 33.1484 339.741 33.9141 338.569 35.4453C337.397 36.9609 336.811 39.5234 336.811 43.1328C336.811 46.7422 337.413 49.3281 338.616 50.8906C339.819 52.4375 341.749 53.2109 344.405 53.2109C346.795 53.2109 348.577 52.3438 349.748 50.6094C350.92 48.8594 351.506 46.3516 351.506 43.0859C351.506 39.7422 350.92 37.25 349.748 35.6094C348.577 33.9688 346.764 33.1484 344.311 33.1484ZM366.248 56H362.358V19.5312H366.248V56ZM385.35 56.4688C381.553 56.4688 378.553 55.3125 376.35 53C374.162 50.6875 373.068 47.4766 373.068 43.3672C373.068 39.2266 374.084 35.9375 376.115 33.5C378.162 31.0625 380.904 29.8438 384.342 29.8438C387.56 29.8438 390.107 30.9062 391.982 33.0312C393.857 35.1406 394.795 37.9297 394.795 41.3984V43.8594H377.1C377.178 46.875 377.936 49.1641 379.373 50.7266C380.826 52.2891 382.865 53.0703 385.49 53.0703C388.256 53.0703 390.99 52.4922 393.693 51.3359V54.8047C392.318 55.3984 391.014 55.8203 389.779 56.0703C388.56 56.3359 387.084 56.4688 385.35 56.4688ZM384.295 33.1016C382.232 33.1016 380.584 33.7734 379.35 35.1172C378.131 36.4609 377.412 38.3203 377.193 40.6953H390.623C390.623 38.2422 390.076 36.3672 388.982 35.0703C387.889 33.7578 386.326 33.1016 384.295 33.1016ZM249.437 96.7188C249.437 100.188 248.25 102.859 245.875 104.734C243.515 106.594 240.133 107.523 235.726 107.523H231.695V121H227.711V86.7344H236.594C245.156 86.7344 249.437 90.0625 249.437 96.7188ZM231.695 104.102H235.281C238.812 104.102 241.367 103.531 242.945 102.391C244.523 101.25 245.312 99.4219 245.312 96.9062C245.312 94.6406 244.57 92.9531 243.086 91.8438C241.601 90.7344 239.289 90.1797 236.148 90.1797H231.695V104.102ZM251.968 95.3125H256.14L261.765 109.961C263 113.305 263.765 115.719 264.062 117.203H264.249C264.453 116.406 264.874 115.047 265.515 113.125C266.171 111.188 268.296 105.25 271.89 95.3125H276.062L265.023 124.562C263.929 127.453 262.648 129.5 261.179 130.703C259.726 131.922 257.937 132.531 255.812 132.531C254.625 132.531 253.453 132.398 252.297 132.133V129.016C253.156 129.203 254.117 129.297 255.179 129.297C257.851 129.297 259.757 127.797 260.898 124.797L262.328 121.141L251.968 95.3125ZM288.53 118.258C289.218 118.258 289.882 118.211 290.523 118.117C291.163 118.008 291.671 117.898 292.046 117.789V120.766C291.624 120.969 290.999 121.133 290.171 121.258C289.359 121.398 288.624 121.469 287.968 121.469C282.999 121.469 280.515 118.852 280.515 113.617V98.3359H276.835V96.4609L280.515 94.8438L282.156 89.3594H284.405V95.3125H291.859V98.3359H284.405V113.453C284.405 115 284.773 116.188 285.507 117.016C286.241 117.844 287.249 118.258 288.53 118.258ZM314.78 121V104.383C314.78 102.289 314.304 100.727 313.35 99.6953C312.397 98.6641 310.905 98.1484 308.874 98.1484C306.171 98.1484 304.194 98.8828 302.944 100.352C301.71 101.82 301.093 104.227 301.093 107.57V121H297.202V84.5312H301.093V95.5703C301.093 96.8984 301.03 98 300.905 98.875H301.14C301.905 97.6406 302.991 96.6719 304.397 95.9688C305.819 95.25 307.436 94.8906 309.249 94.8906C312.39 94.8906 314.741 95.6406 316.304 97.1406C317.882 98.625 318.671 100.992 318.671 104.242V121H314.78ZM348.858 108.133C348.858 112.32 347.803 115.594 345.694 117.953C343.584 120.297 340.67 121.469 336.952 121.469C334.655 121.469 332.616 120.93 330.835 119.852C329.053 118.773 327.678 117.227 326.71 115.211C325.741 113.195 325.257 110.836 325.257 108.133C325.257 103.945 326.303 100.688 328.397 98.3594C330.491 96.0156 333.397 94.8438 337.116 94.8438C340.709 94.8438 343.561 96.0391 345.67 98.4297C347.795 100.82 348.858 104.055 348.858 108.133ZM329.288 108.133C329.288 111.414 329.944 113.914 331.256 115.633C332.569 117.352 334.499 118.211 337.045 118.211C339.592 118.211 341.522 117.359 342.834 115.656C344.163 113.938 344.827 111.43 344.827 108.133C344.827 104.867 344.163 102.391 342.834 100.703C341.522 99 339.577 98.1484 336.999 98.1484C334.452 98.1484 332.53 98.9844 331.233 100.656C329.936 102.328 329.288 104.82 329.288 108.133ZM373.279 121V104.383C373.279 102.289 372.803 100.727 371.85 99.6953C370.897 98.6641 369.404 98.1484 367.373 98.1484C364.686 98.1484 362.717 98.875 361.467 100.328C360.217 101.781 359.592 104.18 359.592 107.523V121H355.702V95.3125H358.866L359.498 98.8281H359.686C360.483 97.5625 361.6 96.5859 363.037 95.8984C364.475 95.1953 366.076 94.8438 367.842 94.8438C370.936 94.8438 373.264 95.5938 374.826 97.0938C376.389 98.5781 377.17 100.961 377.17 104.242V121H373.279ZM257.617 186H253.679L246.765 163.055C246.437 162.039 246.07 160.758 245.664 159.211C245.258 157.664 245.047 156.734 245.031 156.422C244.687 158.484 244.14 160.742 243.39 163.195L236.687 186H232.75L223.633 151.734H227.852L233.265 172.898C234.015 175.867 234.562 178.555 234.906 180.961C235.328 178.102 235.953 175.305 236.781 172.57L242.922 151.734H247.14L253.586 172.758C254.336 175.18 254.968 177.914 255.484 180.961C255.781 178.742 256.343 176.039 257.171 172.852L262.562 151.734H266.781L257.617 186ZM283.281 159.844C284.421 159.844 285.445 159.938 286.351 160.125L285.812 163.734C284.749 163.5 283.812 163.383 282.999 163.383C280.921 163.383 279.14 164.227 277.656 165.914C276.187 167.602 275.452 169.703 275.452 172.219V186H271.562V160.312H274.773L275.218 165.07H275.406C276.359 163.398 277.507 162.109 278.851 161.203C280.195 160.297 281.671 159.844 283.281 159.844ZM306.952 186L306.179 182.344H305.991C304.71 183.953 303.429 185.047 302.147 185.625C300.882 186.188 299.296 186.469 297.39 186.469C294.843 186.469 292.843 185.812 291.39 184.5C289.952 183.188 289.234 181.32 289.234 178.898C289.234 173.711 293.382 170.992 301.679 170.742L306.038 170.602V169.008C306.038 166.992 305.601 165.508 304.726 164.555C303.866 163.586 302.483 163.102 300.577 163.102C298.437 163.102 296.015 163.758 293.312 165.07L292.116 162.094C293.382 161.406 294.765 160.867 296.265 160.477C297.78 160.086 299.296 159.891 300.812 159.891C303.874 159.891 306.14 160.57 307.608 161.93C309.093 163.289 309.835 165.469 309.835 168.469V186H306.952ZM298.163 183.258C300.585 183.258 302.483 182.594 303.858 181.266C305.249 179.938 305.944 178.078 305.944 175.688V173.367L302.054 173.531C298.96 173.641 296.726 174.125 295.351 174.984C293.991 175.828 293.312 177.148 293.312 178.945C293.312 180.352 293.734 181.422 294.577 182.156C295.437 182.891 296.632 183.258 298.163 183.258ZM329.827 186.469C328.155 186.469 326.624 186.164 325.233 185.555C323.858 184.93 322.702 183.977 321.764 182.695H321.483C321.671 184.195 321.764 185.617 321.764 186.961V197.531H317.874V160.312H321.038L321.577 163.828H321.764C322.764 162.422 323.928 161.406 325.257 160.781C326.585 160.156 328.108 159.844 329.827 159.844C333.233 159.844 335.858 161.008 337.702 163.336C339.561 165.664 340.491 168.93 340.491 173.133C340.491 177.352 339.545 180.633 337.655 182.977C335.78 185.305 333.171 186.469 329.827 186.469ZM329.264 163.148C326.639 163.148 324.741 163.875 323.569 165.328C322.397 166.781 321.796 169.094 321.764 172.266V173.133C321.764 176.742 322.366 179.328 323.569 180.891C324.772 182.438 326.702 183.211 329.358 183.211C331.577 183.211 333.311 182.312 334.561 180.516C335.827 178.719 336.46 176.242 336.46 173.086C336.46 169.883 335.827 167.43 334.561 165.727C333.311 164.008 331.546 163.148 329.264 163.148ZM359.264 186.469C357.592 186.469 356.061 186.164 354.67 185.555C353.295 184.93 352.139 183.977 351.202 182.695H350.92C351.108 184.195 351.202 185.617 351.202 186.961V197.531H347.311V160.312H350.475L351.014 163.828H351.202C352.202 162.422 353.366 161.406 354.694 160.781C356.022 160.156 357.545 159.844 359.264 159.844C362.67 159.844 365.295 161.008 367.139 163.336C368.998 165.664 369.928 168.93 369.928 173.133C369.928 177.352 368.983 180.633 367.092 182.977C365.217 185.305 362.608 186.469 359.264 186.469ZM358.701 163.148C356.076 163.148 354.178 163.875 353.006 165.328C351.834 166.781 351.233 169.094 351.202 172.266V173.133C351.202 176.742 351.803 179.328 353.006 180.891C354.209 182.438 356.139 183.211 358.795 183.211C361.014 183.211 362.748 182.312 363.998 180.516C365.264 178.719 365.897 176.242 365.897 173.086C365.897 169.883 365.264 167.43 363.998 165.727C362.748 164.008 360.983 163.148 358.701 163.148ZM387.6 186.469C383.803 186.469 380.803 185.312 378.6 183C376.412 180.688 375.318 177.477 375.318 173.367C375.318 169.227 376.334 165.938 378.365 163.5C380.412 161.062 383.154 159.844 386.592 159.844C389.81 159.844 392.357 160.906 394.232 163.031C396.107 165.141 397.045 167.93 397.045 171.398V173.859H379.35C379.428 176.875 380.186 179.164 381.623 180.727C383.076 182.289 385.115 183.07 387.74 183.07C390.506 183.07 393.24 182.492 395.943 181.336V184.805C394.568 185.398 393.264 185.82 392.029 186.07C390.81 186.336 389.334 186.469 387.6 186.469ZM386.545 163.102C384.482 163.102 382.834 163.773 381.6 165.117C380.381 166.461 379.662 168.32 379.443 170.695H392.873C392.873 168.242 392.326 166.367 391.232 165.07C390.139 163.758 388.576 163.102 386.545 163.102ZM415.42 159.844C416.56 159.844 417.584 159.938 418.49 160.125L417.951 163.734C416.888 163.5 415.951 163.383 415.138 163.383C413.06 163.383 411.279 164.227 409.795 165.914C408.326 167.602 407.591 169.703 407.591 172.219V186H403.701V160.312H406.912L407.357 165.07H407.545C408.498 163.398 409.646 162.109 410.99 161.203C412.334 160.297 413.81 159.844 415.42 159.844Z" fill="#3F4042"/>
</svg>
