<svg width="163" height="145" viewBox="0 0 163 145" fill="none" xmlns="http://www.w3.org/2000/svg">
<path d="M81.0434 142.686C86.763 145.804 93.6926 145.433 98.3668 141.757L159.885 95.0799C163.232 92.6182 162.821 84.6486 159.239 82.5578L93.3723 44.995C87.6527 41.8771 81.4163 42.2109 76.0489 45.9234L14.4134 90.323C11.0656 92.7863 11.4766 100.755 15.059 102.846L81.0434 142.686Z" fill="#7C7C7C"/>
<path d="M93.0917 43.4637C87.3702 40.3795 81.1168 40.7356 75.7229 44.4532L13.7769 88.9051C10.8227 91.0703 10.762 97.4479 13.2163 100.373L85.0594 122.887C91.3613 124.56 98.0405 122.575 101.76 117.924L140.475 71.4404L93.0917 43.4637Z" fill="#474747"/>
<path d="M82.4365 119.582C88.8205 121.099 95.4229 118.894 98.9426 114.067L145.722 52.2032C148.289 48.912 145.717 41.2533 141.681 40.1689L67.7125 21.0786C61.3285 19.5619 55.3865 21.5469 51.2064 26.5938L3.69191 86.2713C1.12476 89.5614 3.69738 97.2197 7.73257 98.3045L82.4365 119.582Z" fill="#5E5E5E"/>
<path d="M67.6491 21.0893C61.2763 19.5882 55.3396 21.5743 51.1576 26.6074L3.61861 86.1185C1.05056 89.4005 3.60751 97.0233 7.63701 98.0983L9.43485 98.6066L84.5015 100.051C91.0427 99.8893 96.8626 96.0788 99.0524 90.5272L122.057 35.0174L67.6491 21.0893Z" fill="#353535"/>
<path d="M85.9969 95.0089C92.4917 94.381 97.9928 90.1571 99.7504 84.449L123.845 10.7295C125.2 6.78297 120.314 0.361119 116.169 0.639515L40.433 6.47875C33.9382 7.10662 28.9868 10.9082 26.679 17.0402L1.18913 88.9248C-0.165645 92.8714 4.71915 99.2921 8.86553 99.0148L85.9969 95.0089Z" fill="#FFCB1A" stroke="#FFCB1A" stroke-width="0.133333" stroke-miterlimit="10"/>
</svg>
