<svg width="271" height="71" viewBox="0 0 271 71" fill="none" xmlns="http://www.w3.org/2000/svg">
<path d="M39.4564 69.8529C42.2318 71.3659 45.5943 71.1859 47.8624 69.4025L77.7136 46.7527C79.3377 45.5582 79.1381 41.691 77.3998 40.6765L45.4389 22.4496C42.6635 20.9366 39.6373 21.0986 37.0329 22.9L7.12491 44.4445C5.50045 45.6398 5.69989 49.5064 7.43819 50.5209L39.4564 69.8529Z" fill="#7C7C7C"/>
<path d="M45.3027 21.7065C42.5264 20.2099 39.492 20.3827 36.8747 22.1867L6.81606 43.7564C5.38257 44.8071 5.35311 47.9018 6.54406 49.3211L41.4051 60.2458C44.463 61.0578 47.704 60.0944 49.5087 57.8374L68.2951 35.2819L45.3027 21.7065Z" fill="#474747"/>
<path d="M40.1324 58.6423C43.2302 59.3783 46.4339 58.3082 48.1418 55.9661L70.8411 25.9473C72.0865 24.3503 70.8387 20.634 68.8802 20.1078L32.9877 10.8444C29.8899 10.1084 27.0067 11.0716 24.9783 13.5206L1.92243 42.4785C0.676752 44.0749 1.92508 47.791 3.88312 48.3174L40.1324 58.6423Z" fill="#5E5E5E"/>
<path d="M32.957 10.8495C29.8646 10.1212 26.9839 11.0849 24.9547 13.5272L1.88687 42.4043C0.640753 43.9968 1.88148 47.6957 3.83676 48.2174L4.70914 48.464L41.1344 49.1651C44.3084 49.0864 47.1325 47.2374 48.1951 44.5436L59.3577 17.608L32.957 10.8495Z" fill="#353535"/>
<path d="M41.8601 46.7182C45.0116 46.4136 47.6809 44.364 48.5337 41.5942L60.2254 5.82261C60.8828 3.90758 58.5122 0.791447 56.5005 0.926539L19.7506 3.75996C16.5991 4.06463 14.1965 5.90933 13.0767 8.88481L0.707992 43.766C0.0506021 45.681 2.42089 48.7966 4.43288 48.6621L41.8601 46.7182Z" fill="#FFCB1A" stroke="#FFCB1A" stroke-width="0.133333" stroke-miterlimit="10"/>
<path d="M113.058 44.3516C111.805 44.3516 110.656 44.123 109.613 43.666C108.582 43.1973 107.715 42.4824 107.012 41.5215H106.801C106.941 42.6465 107.012 43.7129 107.012 44.7207V52.6484H104.094V24.7344H106.467L106.871 27.3711H107.012C107.762 26.3164 108.635 25.5547 109.631 25.0859C110.627 24.6172 111.769 24.3828 113.058 24.3828C115.613 24.3828 117.582 25.2559 118.965 27.002C120.359 28.748 121.056 31.1973 121.056 34.3496C121.056 37.5137 120.347 39.9746 118.929 41.7324C117.523 43.4785 115.566 44.3516 113.058 44.3516ZM112.637 26.8613C110.668 26.8613 109.244 27.4062 108.365 28.4961C107.486 29.5859 107.035 31.3203 107.012 33.6992V34.3496C107.012 37.0566 107.463 38.9961 108.365 40.168C109.267 41.3281 110.715 41.9082 112.707 41.9082C114.371 41.9082 115.672 41.2344 116.609 39.8867C117.558 38.5391 118.033 36.6816 118.033 34.3145C118.033 31.9121 117.558 30.0723 116.609 28.7949C115.672 27.5059 114.347 26.8613 112.637 26.8613ZM123.113 24.7344H126.242L130.461 35.7207C131.386 38.2285 131.961 40.0391 132.183 41.1523H132.324C132.476 40.5547 132.793 39.5352 133.273 38.0938C133.765 36.6406 135.359 32.1875 138.054 24.7344H141.183L132.904 46.6719C132.084 48.8398 131.123 50.375 130.021 51.2773C128.931 52.1914 127.59 52.6484 125.996 52.6484C125.105 52.6484 124.226 52.5488 123.359 52.3496V50.0117C124.004 50.1523 124.724 50.2227 125.521 50.2227C127.525 50.2227 128.955 49.0977 129.81 46.8477L130.882 44.1055L123.113 24.7344ZM160.906 44L157.706 35.8262H147.406L144.242 44H141.218L151.378 18.1953H153.892L163.999 44H160.906ZM156.775 33.1367L153.786 25.1738C153.4 24.166 153.001 22.9297 152.591 21.4648C152.333 22.5898 151.964 23.8262 151.484 25.1738L148.46 33.1367H156.775ZM170.011 44H167.093V24.7344H170.011V44ZM166.847 19.5137C166.847 18.8457 167.011 18.3594 167.339 18.0547C167.667 17.7383 168.077 17.5801 168.569 17.5801C169.038 17.5801 169.443 17.7383 169.782 18.0547C170.122 18.3711 170.292 18.8574 170.292 19.5137C170.292 20.1699 170.122 20.6621 169.782 20.9902C169.443 21.3066 169.038 21.4648 168.569 21.4648C168.077 21.4648 167.667 21.3066 167.339 20.9902C167.011 20.6621 166.847 20.1699 166.847 19.5137ZM184.987 24.3828C185.843 24.3828 186.61 24.4531 187.29 24.5938L186.886 27.3008C186.089 27.125 185.386 27.0371 184.776 27.0371C183.218 27.0371 181.882 27.6699 180.769 28.9355C179.667 30.2012 179.116 31.7773 179.116 33.6641V44H176.198V24.7344H178.606L178.94 28.3027H179.081C179.796 27.0488 180.657 26.082 181.665 25.4023C182.673 24.7227 183.78 24.3828 184.987 24.3828ZM197.116 41.9434C197.632 41.9434 198.13 41.9082 198.61 41.8379C199.091 41.7559 199.471 41.6738 199.753 41.5918V43.8242C199.436 43.9766 198.968 44.0996 198.346 44.1934C197.737 44.2988 197.186 44.3516 196.694 44.3516C192.968 44.3516 191.104 42.3887 191.104 38.4629V27.002H188.345V25.5957L191.104 24.3828L192.335 20.2695H194.022V24.7344H199.612V27.002H194.022V38.3398C194.022 39.5 194.298 40.3906 194.848 41.0117C195.399 41.6328 196.155 41.9434 197.116 41.9434ZM215.467 44L214.887 41.2578H214.747C213.786 42.4648 212.825 43.2852 211.864 43.7188C210.915 44.1406 209.725 44.3516 208.296 44.3516C206.385 44.3516 204.885 43.8594 203.796 42.875C202.718 41.8906 202.178 40.4902 202.178 38.6738C202.178 34.7832 205.29 32.7441 211.512 32.5566L214.782 32.4512V31.2559C214.782 29.7441 214.454 28.6309 213.797 27.916C213.153 27.1895 212.116 26.8262 210.686 26.8262C209.081 26.8262 207.264 27.3184 205.237 28.3027L204.341 26.0703C205.29 25.5547 206.327 25.1504 207.452 24.8574C208.589 24.5645 209.725 24.418 210.862 24.418C213.159 24.418 214.858 24.9277 215.96 25.9473C217.073 26.9668 217.629 28.6016 217.629 30.8516V44H215.467ZM208.876 41.9434C210.692 41.9434 212.116 41.4453 213.147 40.4492C214.19 39.4531 214.712 38.0586 214.712 36.2656V34.5254L211.794 34.6484C209.473 34.7305 207.798 35.0938 206.766 35.7383C205.747 36.3711 205.237 37.3613 205.237 38.709C205.237 39.7637 205.553 40.5664 206.186 41.1172C206.831 41.668 207.727 41.9434 208.876 41.9434ZM232.623 24.418C235.155 24.418 237.117 25.2852 238.512 27.0195C239.918 28.7422 240.621 31.1855 240.621 34.3496C240.621 37.5137 239.912 39.9746 238.494 41.7324C237.088 43.4785 235.131 44.3516 232.623 44.3516C231.37 44.3516 230.221 44.123 229.178 43.666C228.147 43.1973 227.28 42.4824 226.577 41.5215H226.366L225.75 44H223.659V16.6484H226.577V23.293C226.577 24.7812 226.53 26.1172 226.436 27.3008H226.577C227.936 25.3789 229.952 24.418 232.623 24.418ZM232.202 26.8613C230.209 26.8613 228.774 27.4355 227.895 28.584C227.016 29.7207 226.577 31.6426 226.577 34.3496C226.577 37.0566 227.028 38.9961 227.93 40.168C228.832 41.3281 230.28 41.9082 232.272 41.9082C234.065 41.9082 235.401 41.2578 236.28 39.957C237.158 38.6445 237.598 36.7637 237.598 34.3145C237.598 31.8066 237.158 29.9375 236.28 28.707C235.401 27.4766 234.041 26.8613 232.202 26.8613ZM248.654 44H245.737V16.6484H248.654V44ZM262.98 44.3516C260.133 44.3516 257.883 43.4844 256.231 41.75C254.59 40.0156 253.77 37.6074 253.77 34.5254C253.77 31.4199 254.531 28.9531 256.055 27.125C257.59 25.2969 259.646 24.3828 262.225 24.3828C264.639 24.3828 266.549 25.1797 267.955 26.7734C269.361 28.3555 270.064 30.4473 270.064 33.0488V34.8945H256.793C256.852 37.1562 257.42 38.873 258.498 40.0449C259.588 41.2168 261.117 41.8027 263.086 41.8027C265.16 41.8027 267.211 41.3691 269.238 40.502V43.1035C268.207 43.5488 267.228 43.8652 266.303 44.0527C265.389 44.252 264.281 44.3516 262.98 44.3516ZM262.189 26.8262C260.643 26.8262 259.406 27.3301 258.48 28.3379C257.566 29.3457 257.027 30.7402 256.863 32.5215H266.935C266.935 30.6816 266.525 29.2754 265.705 28.3027C264.885 27.3184 263.713 26.8262 262.189 26.8262Z" fill="#3F4042"/>
</svg>
