<svg width="284" height="95" viewBox="0 0 284 95" fill="none" xmlns="http://www.w3.org/2000/svg">
<path d="M52.4564 82.8529C55.2318 84.3659 58.5943 84.1859 60.8624 82.4025L90.7136 59.7527C92.3377 58.5582 92.1381 54.6911 90.3998 53.6765L58.4389 35.4496C55.6635 33.9367 52.6373 34.0986 50.0329 35.9L20.1249 57.4445C18.5004 58.6398 18.6999 62.5064 20.4382 63.521L52.4564 82.8529Z" fill="#7C7C7C"/>
<path d="M58.3027 34.7065C55.5264 33.2099 52.492 33.3827 49.8747 35.1867L19.8161 56.7564C18.3826 57.8071 18.3531 60.9018 19.5441 62.3211L54.4051 73.2458C57.463 74.0578 60.704 73.0944 62.5087 70.8374L81.2951 48.2819L58.3027 34.7065Z" fill="#474747"/>
<path d="M53.1324 71.6423C56.2302 72.3783 59.4339 71.3082 61.1418 68.9661L83.8411 38.9473C85.0865 37.3503 83.8387 33.634 81.8802 33.1078L45.9877 23.8444C42.8899 23.1084 40.0067 24.0716 37.9783 26.5206L14.9224 55.4785C13.6768 57.0749 14.9251 60.791 16.8831 61.3174L53.1324 71.6423Z" fill="#5E5E5E"/>
<path d="M45.957 23.8495C42.8646 23.1212 39.9839 24.0849 37.9547 26.5272L14.8869 55.4043C13.6408 56.9968 14.8815 60.6957 16.8368 61.2174L17.7091 61.464L54.1344 62.1651C57.3084 62.0864 60.1325 60.2374 61.1951 57.5436L72.3577 30.608L45.957 23.8495Z" fill="#353535"/>
<path d="M54.8601 59.7182C58.0116 59.4136 60.6809 57.364 61.5337 54.5942L73.2254 18.8226C73.8828 16.9076 71.5122 13.7914 69.5005 13.9265L32.7506 16.76C29.5991 17.0646 27.1965 18.9093 26.0767 21.8848L13.708 56.766C13.0506 58.681 15.4209 61.7966 17.4329 61.6621L54.8601 59.7182Z" fill="#FFCB1A" stroke="#FFCB1A" stroke-width="0.133333" stroke-miterlimit="10"/>
<path d="M126.058 57.3516C124.805 57.3516 123.656 57.123 122.613 56.666C121.582 56.1973 120.715 55.4824 120.012 54.5215H119.801C119.941 55.6465 120.012 56.7129 120.012 57.7207V65.6484H117.094V37.7344H119.467L119.871 40.3711H120.012C120.762 39.3164 121.635 38.5547 122.631 38.0859C123.627 37.6172 124.769 37.3828 126.058 37.3828C128.613 37.3828 130.582 38.2559 131.965 40.002C133.359 41.748 134.056 44.1973 134.056 47.3496C134.056 50.5137 133.347 52.9746 131.929 54.7324C130.523 56.4785 128.566 57.3516 126.058 57.3516ZM125.637 39.8613C123.668 39.8613 122.244 40.4062 121.365 41.4961C120.486 42.5859 120.035 44.3203 120.012 46.6992V47.3496C120.012 50.0566 120.463 51.9961 121.365 53.168C122.267 54.3281 123.715 54.9082 125.707 54.9082C127.371 54.9082 128.672 54.2344 129.609 52.8867C130.558 51.5391 131.033 49.6816 131.033 47.3145C131.033 44.9121 130.558 43.0723 129.609 41.7949C128.672 40.5059 127.347 39.8613 125.637 39.8613ZM136.113 37.7344H139.242L143.461 48.7207C144.386 51.2285 144.961 53.0391 145.183 54.1523H145.324C145.476 53.5547 145.793 52.5352 146.273 51.0938C146.765 49.6406 148.359 45.1875 151.054 37.7344H154.183L145.904 59.6719C145.084 61.8398 144.123 63.375 143.021 64.2773C141.931 65.1914 140.59 65.6484 138.996 65.6484C138.105 65.6484 137.226 65.5488 136.359 65.3496V63.0117C137.004 63.1523 137.724 63.2227 138.521 63.2227C140.525 63.2227 141.955 62.0977 142.81 59.8477L143.882 57.1055L136.113 37.7344ZM173.906 57L170.706 48.8262H160.406L157.242 57H154.218L164.378 31.1953H166.892L176.999 57H173.906ZM169.775 46.1367L166.786 38.1738C166.4 37.166 166.001 35.9297 165.591 34.4648C165.333 35.5898 164.964 36.8262 164.484 38.1738L161.46 46.1367H169.775ZM183.011 57H180.093V37.7344H183.011V57ZM179.847 32.5137C179.847 31.8457 180.011 31.3594 180.339 31.0547C180.667 30.7383 181.077 30.5801 181.569 30.5801C182.038 30.5801 182.443 30.7383 182.782 31.0547C183.122 31.3711 183.292 31.8574 183.292 32.5137C183.292 33.1699 183.122 33.6621 182.782 33.9902C182.443 34.3066 182.038 34.4648 181.569 34.4648C181.077 34.4648 180.667 34.3066 180.339 33.9902C180.011 33.6621 179.847 33.1699 179.847 32.5137ZM197.987 37.3828C198.843 37.3828 199.61 37.4531 200.29 37.5938L199.886 40.3008C199.089 40.125 198.386 40.0371 197.776 40.0371C196.218 40.0371 194.882 40.6699 193.769 41.9355C192.667 43.2012 192.116 44.7773 192.116 46.6641V57H189.198V37.7344H191.606L191.94 41.3027H192.081C192.796 40.0488 193.657 39.082 194.665 38.4023C195.673 37.7227 196.78 37.3828 197.987 37.3828ZM210.116 54.9434C210.632 54.9434 211.13 54.9082 211.61 54.8379C212.091 54.7559 212.471 54.6738 212.753 54.5918V56.8242C212.436 56.9766 211.968 57.0996 211.346 57.1934C210.737 57.2988 210.186 57.3516 209.694 57.3516C205.968 57.3516 204.104 55.3887 204.104 51.4629V40.002H201.345V38.5957L204.104 37.3828L205.335 33.2695H207.022V37.7344H212.612V40.002H207.022V51.3398C207.022 52.5 207.298 53.3906 207.848 54.0117C208.399 54.6328 209.155 54.9434 210.116 54.9434ZM228.467 57L227.887 54.2578H227.747C226.786 55.4648 225.825 56.2852 224.864 56.7188C223.915 57.1406 222.725 57.3516 221.296 57.3516C219.385 57.3516 217.885 56.8594 216.796 55.875C215.718 54.8906 215.178 53.4902 215.178 51.6738C215.178 47.7832 218.29 45.7441 224.512 45.5566L227.782 45.4512V44.2559C227.782 42.7441 227.454 41.6309 226.797 40.916C226.153 40.1895 225.116 39.8262 223.686 39.8262C222.081 39.8262 220.264 40.3184 218.237 41.3027L217.341 39.0703C218.29 38.5547 219.327 38.1504 220.452 37.8574C221.589 37.5645 222.725 37.418 223.862 37.418C226.159 37.418 227.858 37.9277 228.96 38.9473C230.073 39.9668 230.629 41.6016 230.629 43.8516V57H228.467ZM221.876 54.9434C223.692 54.9434 225.116 54.4453 226.147 53.4492C227.19 52.4531 227.712 51.0586 227.712 49.2656V47.5254L224.794 47.6484C222.473 47.7305 220.798 48.0938 219.766 48.7383C218.747 49.3711 218.237 50.3613 218.237 51.709C218.237 52.7637 218.553 53.5664 219.186 54.1172C219.831 54.668 220.727 54.9434 221.876 54.9434ZM245.623 37.418C248.155 37.418 250.117 38.2852 251.512 40.0195C252.918 41.7422 253.621 44.1855 253.621 47.3496C253.621 50.5137 252.912 52.9746 251.494 54.7324C250.088 56.4785 248.131 57.3516 245.623 57.3516C244.37 57.3516 243.221 57.123 242.178 56.666C241.147 56.1973 240.28 55.4824 239.577 54.5215H239.366L238.75 57H236.659V29.6484H239.577V36.293C239.577 37.7812 239.53 39.1172 239.436 40.3008H239.577C240.936 38.3789 242.952 37.418 245.623 37.418ZM245.202 39.8613C243.209 39.8613 241.774 40.4355 240.895 41.584C240.016 42.7207 239.577 44.6426 239.577 47.3496C239.577 50.0566 240.028 51.9961 240.93 53.168C241.832 54.3281 243.28 54.9082 245.272 54.9082C247.065 54.9082 248.401 54.2578 249.28 52.957C250.158 51.6445 250.598 49.7637 250.598 47.3145C250.598 44.8066 250.158 42.9375 249.28 41.707C248.401 40.4766 247.041 39.8613 245.202 39.8613ZM261.654 57H258.737V29.6484H261.654V57ZM275.98 57.3516C273.133 57.3516 270.883 56.4844 269.231 54.75C267.59 53.0156 266.77 50.6074 266.77 47.5254C266.77 44.4199 267.531 41.9531 269.055 40.125C270.59 38.2969 272.646 37.3828 275.225 37.3828C277.639 37.3828 279.549 38.1797 280.955 39.7734C282.361 41.3555 283.064 43.4473 283.064 46.0488V47.8945H269.793C269.852 50.1562 270.42 51.873 271.498 53.0449C272.588 54.2168 274.117 54.8027 276.086 54.8027C278.16 54.8027 280.211 54.3691 282.238 53.502V56.1035C281.207 56.5488 280.228 56.8652 279.303 57.0527C278.389 57.252 277.281 57.3516 275.98 57.3516ZM275.189 39.8262C273.643 39.8262 272.406 40.3301 271.48 41.3379C270.566 42.3457 270.027 43.7402 269.863 45.5215H279.935C279.935 43.6816 279.525 42.2754 278.705 41.3027C277.885 40.3184 276.713 39.8262 275.189 39.8262Z" fill="#3F4042"/>
</svg>
