<?xml version="1.0" encoding="utf-8"?>
<!-- Generator: Adobe Illustrator 21.0.2, SVG Export Plug-In . SVG Version: 6.00 Build 0)  -->
<svg version="1.1" id="Layer_1" xmlns="http://www.w3.org/2000/svg" xmlns:xlink="http://www.w3.org/1999/xlink" x="0px" y="0px"
	 viewBox="0 0 32 32" style="enable-background:new 0 0 32 32;" xml:space="preserve">
<style type="text/css">
	.st0{fill:#FFBF00;}
	.st1{fill:#26B5F8;}
	.st2{fill:#ED3049;}
	.st3{fill-opacity:0.25;}
</style>
<g>
	<path class="st0" d="M14.8,6.4l-9.2,3.8c-0.5,0.2-0.5,0.9,0,1.1l9.2,3.6c0.8,0.3,1.7,0.3,2.5,0l9.2-3.6c0.5-0.2,0.5-0.9,0-1.1
		l-9.2-3.8C16.6,6.1,15.6,6.1,14.8,6.4"/>
	<path class="st1" d="M16.9,17v9.1c0,0.4,0.4,0.7,0.8,0.6l10.2-4c0.2-0.1,0.4-0.3,0.4-0.6V13c0-0.4-0.4-0.7-0.8-0.6l-10.2,4
		C17.1,16.5,16.9,16.7,16.9,17"/>
	<path class="st2" d="M14.5,17.5l-3,1.5l-0.3,0.1l-6.4,3.1c-0.4,0.2-0.9-0.1-0.9-0.6v-8.5c0-0.2,0.1-0.3,0.2-0.4
		c0,0,0.1-0.1,0.2-0.1c0.2-0.1,0.4-0.1,0.6,0l9.7,3.9C15,16.5,15,17.2,14.5,17.5"/>
	<path class="st3" d="M14.5,17.5l-3,1.5L4,12.6c0,0,0.1-0.1,0.2-0.1c0.2-0.1,0.4-0.1,0.6,0l9.7,3.9C15,16.5,15,17.2,14.5,17.5"/>
</g>
</svg>
